<svg width="64" height="64" viewBox="0 0 64 64" fill="none" xmlns="http://www.w3.org/2000/svg">
<g clip-path="url(#clip0_778_4843)">
<clipPath id="mask0_778_4843" style="mask-type:alpha" maskUnits="userSpaceOnUse" x="0" y="0" width="64" height="64"><path d="M32 64C49.6731 64 64 49.6731 64 32C64 14.3269 49.6731 0 32 0C14.3269 0 0 14.3269 0 32C0 49.6731 14.3269 64 32 64Z" fill="#231D9A"></path></clipPath>
<g clip-path="url(#mask0_778_4843)">
<path d="M88.888 -5.54639H-24.7461V69.9736H88.888V-5.54639Z" fill="white"></path>
<path d="M37.9891 34.7509C37.9891 34.7509 38.4086 35.5195 38.0389 36.4025C37.6692 37.2855 36.8273 37.526 36.8273 37.526C36.8273 37.526 36.4078 36.7574 36.7775 35.8744C37.1472 34.9914 37.9891 34.7509 37.9891 34.7509Z" fill="#1E5B00"></path>
<path d="M25.9933 34.7509C25.9933 34.7509 25.5738 35.5195 25.9435 36.4025C26.3132 37.2855 27.1551 37.526 27.1551 37.526C27.1551 37.526 27.5746 36.7574 27.2049 35.8744C26.8353 34.9914 25.9933 34.7509 25.9933 34.7509Z" fill="#1E5B00"></path>
<path d="M41.2256 33.0031C41.2256 33.0031 41.3152 33.8741 40.6328 34.5454C39.9504 35.2167 39.0809 35.1129 39.0809 35.1129C39.0809 35.1129 38.9913 34.2419 39.6737 33.5706C40.3561 32.8992 41.2256 33.0031 41.2256 33.0031Z" fill="#1E5B00"></path>
<path d="M38.4578 32.2371C38.4578 32.2371 39.2569 32.5951 39.4971 33.5217C39.7373 34.4484 39.2126 35.1494 39.2126 35.1494C39.2126 35.1494 38.4135 34.7915 38.1733 33.8648C37.9331 32.9382 38.4578 32.2371 38.4578 32.2371Z" fill="#1E5B00"></path>
<path d="M22.7558 33.0031C22.7558 33.0031 22.6663 33.8741 23.3487 34.5454C24.0311 35.2167 24.9006 35.1129 24.9006 35.1129C24.9006 35.1129 24.9901 34.2419 24.3077 33.5706C23.6253 32.8992 22.7558 33.0031 22.7558 33.0031Z" fill="#1E5B00"></path>
<path d="M25.5237 32.2371C25.5237 32.2371 24.7245 32.5951 24.4843 33.5217C24.2442 34.4484 24.7688 35.1494 24.7688 35.1494C24.7688 35.1494 25.568 34.7915 25.8081 33.8648C26.0483 32.9382 25.5237 32.2371 25.5237 32.2371Z" fill="#1E5B00"></path>
<path d="M41.6273 29.255C41.6273 29.255 41.946 30.0706 41.4673 30.8996C40.9887 31.7286 40.123 31.8604 40.123 31.8604C40.123 31.8604 39.8044 31.0448 40.283 30.2158C40.7617 29.3868 41.6273 29.255 41.6273 29.255Z" fill="#1E5B00"></path>
<path d="M38.7562 29.2548C38.7562 29.2548 39.6219 29.3866 40.1005 30.2157C40.5791 31.0447 40.2605 31.8603 40.2605 31.8603C40.2605 31.8603 39.3948 31.7284 38.9162 30.8994C38.4376 30.0704 38.7562 29.2548 38.7562 29.2548Z" fill="#1E5B00"></path>
<path d="M22.3551 29.2555C22.3551 29.2555 22.0365 30.0711 22.5151 30.9001C22.9937 31.7291 23.8594 31.8609 23.8594 31.8609C23.8594 31.8609 24.178 31.0453 23.6994 30.2163C23.2208 29.3873 22.3551 29.2555 22.3551 29.2555Z" fill="#1E5B00"></path>
<path d="M25.2262 29.2553C25.2262 29.2553 24.3605 29.3871 23.8819 30.2161C23.4033 31.0452 23.7219 31.8608 23.7219 31.8608C23.7219 31.8608 24.5876 31.7289 25.0662 30.8999C25.5449 30.0709 25.2262 29.2553 25.2262 29.2553Z" fill="#1E5B00"></path>
<path d="M39.9533 25.3997C39.9533 25.3997 40.6403 25.9427 40.646 26.8999C40.6517 27.8572 39.9712 28.4082 39.9712 28.4082C39.9712 28.4082 39.2842 27.8653 39.2785 26.9081C39.2728 25.9508 39.9533 25.3997 39.9533 25.3997Z" fill="#1E5B00"></path>
<path d="M37.7528 24.8426C37.7528 24.8426 38.6277 24.8777 39.1953 25.6486C39.7628 26.4194 39.5365 27.2653 39.5365 27.2653C39.5365 27.2653 38.6616 27.2302 38.094 26.4594C37.5265 25.6885 37.7528 24.8426 37.7528 24.8426Z" fill="#1E5B00"></path>
<path d="M26.3486 25.1345C26.3486 25.1345 25.473 25.1411 24.8807 25.8931C24.2883 26.6451 24.487 27.4979 24.487 27.4979C24.487 27.4979 25.3626 27.4913 25.9549 26.7393C26.5473 25.9873 26.3486 25.1345 26.3486 25.1345Z" fill="#1E5B00"></path>
<path d="M37.4751 26.8506C37.4751 26.8506 38.2888 26.5271 39.1206 27.0008C39.9525 27.4745 40.0895 28.3394 40.0895 28.3394C40.0895 28.3394 39.2758 28.6629 38.4439 28.1892C37.6121 27.7155 37.4751 26.8506 37.4751 26.8506Z" fill="#1E5B00"></path>
<path d="M24.0291 25.3997C24.0291 25.3997 23.3421 25.9427 23.3364 26.8999C23.3307 27.8572 24.0112 28.4082 24.0112 28.4082C24.0112 28.4082 24.6982 27.8653 24.7039 26.9081C24.7096 25.9508 24.0291 25.3997 24.0291 25.3997Z" fill="#1E5B00"></path>
<path d="M26.5074 26.8506C26.5074 26.8506 25.6937 26.5271 24.8618 27.0008C24.03 27.4745 23.893 28.3394 23.893 28.3394C23.893 28.3394 24.7067 28.6629 25.5385 28.1892C26.3704 27.7155 26.5074 26.8506 26.5074 26.8506Z" fill="#1E5B00"></path>
<path d="M35.4669 36.092C35.4669 36.092 35.7968 36.9031 35.3297 37.7386C34.8626 38.5742 33.9989 38.718 33.9989 38.718C33.9989 38.718 33.669 37.9069 34.1361 37.0713C34.6032 36.2358 35.4669 36.092 35.4669 36.092Z" fill="#1E5B00"></path>
<path d="M28.5155 36.092C28.5155 36.092 28.1856 36.9031 28.6527 37.7386C29.1198 38.5742 29.9836 38.718 29.9836 38.718C29.9836 38.718 30.3135 37.9069 29.8463 37.0713C29.3792 36.2358 28.5155 36.092 28.5155 36.092Z" fill="#1E5B00"></path>
<path d="M32.8555 38.9532C34.1572 38.8154 35.4106 38.3639 36.506 37.632C37.8391 36.7413 38.8782 35.4752 39.4918 33.9939C40.1053 32.5126 40.2659 30.8826 39.9531 29.3101C39.7818 28.449 39.4728 27.6263 39.0422 26.8721M31.1488 38.9532C29.8472 38.8154 28.5937 38.3639 27.4984 37.632C26.1652 36.7413 25.1262 35.4752 24.5126 33.9939C23.899 32.5126 23.7385 30.8826 24.0513 29.3101C24.2059 28.5326 24.4729 27.7864 24.8403 27.0936" stroke="#1E5B00" stroke-width="0.853333"></path>
<path d="M39.7283 37.0352C39.7283 37.0352 39.2724 37.7828 38.3228 37.9041C37.3733 38.0255 36.744 37.4166 36.744 37.4166C36.744 37.4166 37.1999 36.669 38.1495 36.5476C39.099 36.4263 39.7283 37.0352 39.7283 37.0352Z" fill="#1E5B00"></path>
<path d="M24.2541 37.0352C24.2541 37.0352 24.7101 37.7828 25.6596 37.9041C26.6091 38.0255 27.2384 37.4166 27.2384 37.4166C27.2384 37.4166 26.7825 36.669 25.833 36.5476C24.8834 36.4263 24.2541 37.0352 24.2541 37.0352Z" fill="#1E5B00"></path>
<path d="M36.8932 38.5587C36.8932 38.5587 36.3557 39.25 35.3986 39.2632C34.4414 39.2764 33.885 38.6003 33.885 38.6003C33.885 38.6003 34.4225 37.909 35.3797 37.8958C36.3368 37.8826 36.8932 38.5587 36.8932 38.5587Z" fill="#1E5B00"></path>
<path d="M27.0882 38.5587C27.0882 38.5587 27.6257 39.25 28.5829 39.2632C29.54 39.2764 30.0965 38.6003 30.0965 38.6003C30.0965 38.6003 29.559 37.909 28.6018 37.8958C27.6446 37.8826 27.0882 38.5587 27.0882 38.5587Z" fill="#1E5B00"></path>
<path d="M64.001 0.000488281H0.000976562V21.3338H64.001V0.000488281Z" fill="#231D9A"></path>
<path d="M64.001 42.667H0.000976562V64.0003H64.001V42.667Z" fill="#231D9A"></path>
<path d="M35.0819 28.5414C35.3922 29.075 35.555 29.6791 35.555 30.2932C35.555 30.9074 35.3922 31.5115 35.0819 32.0451C34.7715 32.5789 34.3239 33.0239 33.7828 33.3341C33.2415 33.6443 32.6264 33.8082 31.9994 33.8082C31.3724 33.8082 30.7573 33.6443 30.2161 33.3341C29.6749 33.0239 29.2274 32.5789 28.917 32.0451C28.6066 31.5115 28.4439 30.9074 28.4439 30.2932C28.4439 29.6791 28.6066 29.075 28.917 28.5414" stroke="#231D9A" stroke-width="4.0635"></path>
<path d="M35.96 28.0306C36.3604 28.719 36.5709 29.4994 36.5709 30.2932C36.5709 31.0871 36.3604 31.8675 35.96 32.5559C35.5596 33.2443 34.9832 33.8169 34.2879 34.2154C33.5926 34.614 32.8033 34.824 31.9994 34.824C31.1955 34.824 30.4062 34.614 29.7109 34.2154C29.0157 33.8169 28.4392 33.2443 28.0388 32.5559C27.6385 31.8675 27.428 31.0871 27.428 30.2932C27.428 29.4994 27.6385 28.719 28.0388 28.0306" stroke="white" stroke-width="2.03175"></path>
<path d="M36.3991 27.7753C36.8445 28.5411 37.0788 29.4095 37.0788 30.2932C37.0788 31.177 36.8445 32.0454 36.3991 32.8112C35.9537 33.5771 35.3128 34.2135 34.5405 34.6561C33.7682 35.0988 32.8918 35.332 31.9994 35.332C31.1071 35.332 30.2307 35.0988 29.4583 34.6561C28.686 34.2135 28.0451 33.5771 27.5997 32.8112C27.1544 32.0454 26.92 31.177 26.92 30.2932C26.92 29.4095 27.1544 28.5411 27.5997 27.7753" stroke="#231D9A" stroke-width="1.01587"></path>
<circle cx="31.9997" cy="38.8269" r="0.853333" fill="white" stroke="#231D9A" stroke-width="0.853333"></circle>
<clipPath id="mask1_778_4843" style="mask-type:alpha" maskUnits="userSpaceOnUse" x="25" y="25" width="14" height="11"><path d="M31.9998 25.2437L38.1582 35.9103H25.8414L31.9998 25.2437Z" fill="#78C9FF"></path></clipPath>
<g clip-path="url(#mask1_778_4843)">
<rect x="27.9365" y="26.2598" width="8.127" height="7.11112" fill="white"></rect>
<rect x="25.9043" y="33.8784" width="12.1905" height="2.03175" fill="#78C9FF"></rect>
<path d="M30.4757 31.8467L38.0948 33.8784H25.9043L30.4757 31.8467Z" fill="#FFD400"></path>
</g>
<path d="M32.0002 29.3066L33.0161 30.3225L32.0002 31.3384L30.9844 30.3225L32.0002 29.3066Z" fill="#F0263C"></path>
<path d="M26.2813 35.6564L31.9998 25.7516L37.7183 35.6564H26.2813Z" stroke="#FFD400" stroke-width="0.507937"></path>
</g>
</g>
<defs>
<clipPath id="clip0_778_4843">
<rect width="64" height="64" fill="white"></rect>
</clipPath>
</defs>
</svg>
