<svg width="72" height="72" viewBox="0 0 72 72" fill="none" xmlns="http://www.w3.org/2000/svg">
<g clip-path="url(#clip0_800_1886)">
<clipPath id="mask0_800_1886" style="mask-type:alpha" maskUnits="userSpaceOnUse" x="0" y="0" width="72" height="72"><path d="M36 72C55.8823 72 72 55.8823 72 36C72 16.1177 55.8823 0 36 0C16.1177 0 0 16.1177 0 36C0 55.8823 16.1177 72 36 72Z" fill="#231D9A"></path></clipPath>
<g clip-path="url(#mask0_800_1886)">
<path d="M99.9985 -6.24023H-27.8398V78.7198H99.9985V-6.24023Z" fill="white"></path>
<path d="M27.8405 0.47998H0.480469V27.84H27.8405V0.47998Z" fill="#231D9A"></path>
<path d="M71.5202 0.47998H43.2002V27.84H71.5202V0.47998Z" fill="#231D9A"></path>
<path d="M27.8405 44.1597H0.480469V77.7597H27.8405V44.1597Z" fill="#F0263C"></path>
<path d="M71.5202 44.1597H43.2002V77.7597H71.5202V44.1597Z" fill="#F0263C"></path>
<clipPath id="mask1_800_1886" style="mask-type:alpha" maskUnits="userSpaceOnUse" x="31" y="31" width="9" height="10"><path d="M39.8402 31.6797H31.2002L32.1602 32.3997V38.8797L32.6402 39.5997H34.5602L35.5202 40.3197L36.4802 39.5997H38.4002L38.8802 38.8797V32.3997L39.8402 31.6797Z" fill="black"></path></clipPath>
<g clip-path="url(#mask1_800_1886)">
<rect x="31.2002" y="31.1997" width="8.64" height="9.12" fill="white"></rect>
<rect x="31.2002" y="31.1997" width="3.84" height="3.84" fill="#231D9A"></rect>
<rect x="36" y="31.1997" width="3.84" height="3.84" fill="#F0263C"></rect>
<rect x="31.2002" y="35.9995" width="3.84" height="4.32" fill="#F0263C"></rect>
<rect x="36" y="35.9995" width="3.84" height="4.32" fill="#231D9A"></rect>
<rect width="0.96" height="2.4" transform="matrix(-1 0 0 1 35.5205 35.5195)" fill="#231D9A"></rect>
<rect width="0.48" height="2.4" transform="matrix(-1 0 0 1 35.5205 35.9995)" fill="#F0263C"></rect>
<rect width="0.96" height="2.4" transform="matrix(-1 0 0 1 36.4805 35.5195)" fill="#F0263C"></rect>
<rect width="0.48" height="2.4" transform="matrix(-1 0 0 1 36 35.9995)" fill="#231D9A"></rect>
<rect x="36.4805" y="33.1196" width="0.48" height="1.92" transform="rotate(90 36.4805 33.1196)" fill="#FFD400"></rect>
</g>
<path d="M31.7162 39.9377C31.7162 39.9377 31.2783 40.4484 31.4153 41.1711C31.5522 41.8937 32.1467 42.2088 32.1467 42.2088C32.1467 42.2088 32.5846 41.6981 32.4476 40.9754C32.3107 40.2528 31.7162 39.9377 31.7162 39.9377Z" fill="#1E5B00"></path>
<path d="M28.6882 38.6401C28.6882 38.6401 28.6194 39.3094 29.1437 39.8252C29.668 40.341 30.3361 40.2612 30.3361 40.2612C30.3361 40.2612 30.4049 39.592 29.8806 39.0762C29.3563 38.5604 28.6882 38.6401 28.6882 38.6401Z" fill="#1E5B00"></path>
<path d="M30.8147 38.0518C30.8147 38.0518 30.2007 38.3268 30.0161 39.0388C29.8316 39.7508 30.2347 40.2894 30.2347 40.2894C30.2347 40.2894 30.8487 40.0144 31.0333 39.3024C31.2178 38.5904 30.8147 38.0518 30.8147 38.0518Z" fill="#1E5B00"></path>
<path d="M28.2789 35.8787C28.2789 35.8787 28.069 36.5178 28.4713 37.1336C28.8736 37.7493 29.5432 37.8138 29.5432 37.8138C29.5432 37.8138 29.7532 37.1746 29.3509 36.5589C28.9486 35.9432 28.2789 35.8787 28.2789 35.8787Z" fill="#1E5B00"></path>
<path d="M30.4824 35.7574C30.4824 35.7574 29.8239 35.8952 29.4918 36.5514C29.1597 37.2077 29.4387 37.8199 29.4387 37.8199C29.4387 37.8199 30.0972 37.6821 30.4293 37.0259C30.7614 36.3696 30.4824 35.7574 30.4824 35.7574Z" fill="#1E5B00"></path>
<path d="M29.3673 32.6496C29.3673 32.6496 28.8343 33.0602 28.8209 33.7956C28.8074 34.5309 29.325 34.9608 29.325 34.9608C29.325 34.9608 29.858 34.5502 29.8714 33.8148C29.8849 33.0794 29.3673 32.6496 29.3673 32.6496Z" fill="#1E5B00"></path>
<path d="M31.2574 33.7874C31.2574 33.7874 30.6353 33.5311 29.9917 33.8871C29.3482 34.2432 29.2347 34.9063 29.2347 34.9063C29.2347 34.9063 29.8568 35.1626 30.5004 34.8066C31.144 34.4505 31.2574 33.7874 31.2574 33.7874Z" fill="#1E5B00"></path>
<path d="M34.5603 44.1601L36.0003 42.9915C37.0002 42.8856 38.1261 42.5387 38.9675 41.9764C39.9916 41.292 40.7898 40.3192 41.2611 39.181C41.7325 38.0429 41.9123 36.6044 41.6155 35.5823C41.3188 34.5601 40.8869 33.6001 40.119 32.6401M36.4803 44.1601L35.0403 42.9915C34.0404 42.8856 32.8894 42.5387 32.0479 41.9764C31.0238 41.292 30.2257 40.3192 29.7543 39.181C29.283 38.0429 29.1596 36.7905 29.3999 35.5823C29.6032 34.5601 30.041 33.6003 31.0008 32.6401" stroke="#1E5B00" stroke-width="0.65565"></path>
<path d="M39.0166 40.4087L39.2543 42.2479" stroke="#005B13" stroke-width="0.65565"></path>
<path d="M40.834 41.8101L38.9948 42.0478" stroke="#005B13" stroke-width="0.65565"></path>
<path d="M40.0654 39.1782L40.6783 40.9285" stroke="#005B13" stroke-width="0.65565"></path>
<path d="M42.1338 40.1733L40.3835 40.7863" stroke="#005B13" stroke-width="0.65565"></path>
<path d="M40.5244 37.4399L41.6155 38.9395" stroke="#005B13" stroke-width="0.65565"></path>
<path d="M42.792 37.7974L41.2925 38.8885" stroke="#005B13" stroke-width="0.65565"></path>
<path d="M40.3203 35.5918L41.9084 36.5495" stroke="#005B13" stroke-width="0.65565"></path>
<path d="M39.7178 33.793L41.4765 34.3813" stroke="#005B13" stroke-width="0.65565"></path>
<path d="M42.5479 35.04L41.5902 36.6281" stroke="#005B13" stroke-width="0.65565"></path>
<path d="M41.7715 32.7686L41.1832 34.5273" stroke="#005B13" stroke-width="0.65565"></path>
<path d="M29.9331 41.3778C29.9331 41.3778 30.1564 42.0124 30.8507 42.2551C31.545 42.4978 32.1152 42.1406 32.1152 42.1406C32.1152 42.1406 31.8918 41.506 31.1975 41.2633C30.5032 41.0205 29.9331 41.3778 29.9331 41.3778Z" fill="#1E5B00"></path>
<rect x="33.6006" y="27.8398" width="3.84" height="1.44" fill="#231D9A"></rect>
<rect x="30.7207" y="28.7998" width="3.84" height="1.44" fill="#231D9A"></rect>
<path d="M41.7607 29.7598H38.4007V31.1998H41.7607L41.2807 30.4798L41.7607 29.7598Z" fill="#231D9A"></path>
<path d="M29.2803 29.7598H32.6403V31.1998H29.2803L29.7603 30.4798L29.2803 29.7598Z" fill="#231D9A"></path>
<rect x="36.4805" y="28.7998" width="3.84" height="1.44" fill="#231D9A"></rect>
<path d="M31.6807 43.1997H35.5206H39.3607V41.7597H35.5206H31.6807V43.1997Z" fill="#F0263C"></path>
<path d="M41.7607 44.1597L37.9207 44.1597L37.9388 42.7197L41.7607 42.7375L41.2807 43.4397L41.7607 44.1597Z" fill="#F0263C"></path>
<path d="M29.2803 44.1597L33.1203 44.1597L33.1022 42.7197L29.2803 42.7375L29.7603 43.4397L29.2803 44.1597Z" fill="#F0263C"></path>
<path d="M35.5195 32.6396L35.5195 35.5196" stroke="#FFD400" stroke-width="0.48"></path>
<path d="M35.5195 32.6399V32.3999" stroke="#FFD400" stroke-width="0.48"></path>
<path d="M37.9195 33.1196L35.5195 35.9996" stroke="#FFD400" stroke-width="0.48"></path>
<path d="M33.1195 33.1196L35.5195 35.9996" stroke="#FFD400" stroke-width="0.48"></path>
<rect width="0.96" height="1.44" transform="matrix(-1 0 0 1 35.04 35.3911)" fill="#231D9A"></rect>
<rect width="0.96" height="1.44" transform="matrix(-1 0 0 1 36.96 35.3911)" fill="#F0263C"></rect>
<path d="M34.0801 35.3916H36.9601V35.6316L35.5201 36.3516L34.0801 35.6316V35.3916Z" fill="#C8C8C8"></path>
<path d="M35.5205 34.6714L36.9605 35.3914L35.5205 36.1114L34.0805 35.3914L35.5205 34.6714Z" fill="white"></path>
</g>
</g>
<defs>
<clipPath id="clip0_800_1886">
<rect width="72" height="72" fill="white"></rect>
</clipPath>
</defs>
</svg>
