<svg width="64" height="64" viewBox="0 0 64 64" fill="none" xmlns="http://www.w3.org/2000/svg">
<g clip-path="url(#clip0_626_11143)">
<path d="M31.9997 64C35.733 64 39.333 63.3333 42.6663 62.2L42.6663 1.86667C39.333 0.666666 35.733 -2.53679e-06 31.9997 -2.3736e-06C28.2663 -2.21041e-06 24.6663 0.666663 21.333 1.8L21.333 62.2C24.6663 63.3333 28.2663 64 31.9997 64Z" fill="white"/>
<path d="M21.3333 62.1992L21.3333 1.86588C8.93333 6.19922 -1.92913e-06 18.0659 -1.32008e-06 31.9992C-7.11039e-07 45.9326 8.93333 57.7992 21.3333 62.1992Z" fill="#78C9FF"/>
<path d="M42.667 1.79921L42.667 62.1992C55.067 57.7992 64.0003 45.9326 64.0003 31.9992C64.0003 18.0659 55.067 6.19921 42.667 1.79921Z" fill="#78C9FF"/>
<path d="M37.9872 35.308C37.9872 35.308 38.4066 36.0766 38.037 36.9596C37.6673 37.8426 36.8253 38.0832 36.8253 38.0832C36.8253 38.0832 36.4059 37.3145 36.7755 36.4315C37.1452 35.5485 37.9872 35.308 37.9872 35.308Z" fill="#005B13"/>
<path d="M25.9914 35.308C25.9914 35.308 25.5719 36.0766 25.9416 36.9596C26.3112 37.8426 27.1532 38.0832 27.1532 38.0832C27.1532 38.0832 27.5727 37.3145 27.203 36.4315C26.8333 35.5485 25.9914 35.308 25.9914 35.308Z" fill="#005B13"/>
<path d="M41.2237 33.5602C41.2237 33.5602 41.3132 34.4312 40.6308 35.1026C39.9484 35.7739 39.0789 35.6701 39.0789 35.6701C39.0789 35.6701 38.9894 34.799 39.6718 34.1277C40.3542 33.4564 41.2237 33.5602 41.2237 33.5602Z" fill="#005B13"/>
<path d="M38.4558 32.7943C38.4558 32.7943 39.255 33.1522 39.4951 34.0789C39.7353 35.0055 39.2107 35.7066 39.2107 35.7066C39.2107 35.7066 38.4115 35.3486 38.1714 34.422C37.9312 33.4953 38.4558 32.7943 38.4558 32.7943Z" fill="#005B13"/>
<path d="M22.7539 33.5607C22.7539 33.5607 22.6643 34.4317 23.3467 35.103C24.0291 35.7744 24.8986 35.6705 24.8986 35.6705C24.8986 35.6705 24.9882 34.7995 24.3058 34.1282C23.6233 33.4569 22.7539 33.5607 22.7539 33.5607Z" fill="#005B13"/>
<path d="M25.5217 32.7948C25.5217 32.7948 24.7226 33.1527 24.4824 34.0794C24.2422 35.006 24.7669 35.7071 24.7669 35.7071C24.7669 35.7071 25.566 35.3491 25.8062 34.4225C26.0464 33.4958 25.5217 32.7948 25.5217 32.7948Z" fill="#005B13"/>
<path d="M41.6263 29.8121C41.6263 29.8121 41.945 30.6277 41.4664 31.4567C40.9877 32.2857 40.1221 32.4176 40.1221 32.4176C40.1221 32.4176 39.8034 31.602 40.282 30.773C40.7607 29.9439 41.6263 29.8121 41.6263 29.8121Z" fill="#005B13"/>
<path d="M38.7552 29.8119C38.7552 29.8119 39.6209 29.9438 40.0995 30.7728C40.5782 31.6018 40.2595 32.4174 40.2595 32.4174C40.2595 32.4174 39.3939 32.2856 38.9152 31.4565C38.4366 30.6275 38.7552 29.8119 38.7552 29.8119Z" fill="#005B13"/>
<path d="M22.3532 29.8121C22.3532 29.8121 22.0345 30.6277 22.5131 31.4567C22.9918 32.2857 23.8574 32.4176 23.8574 32.4176C23.8574 32.4176 24.1761 31.602 23.6974 30.773C23.2188 29.9439 22.3532 29.8121 22.3532 29.8121Z" fill="#005B13"/>
<path d="M25.2243 29.8119C25.2243 29.8119 24.3586 29.9438 23.88 30.7728C23.4013 31.6018 23.72 32.4174 23.72 32.4174C23.72 32.4174 24.5856 32.2856 25.0643 31.4565C25.5429 30.6275 25.2243 29.8119 25.2243 29.8119Z" fill="#005B13"/>
<path d="M39.9513 25.9569C39.9513 25.9569 40.6383 26.4998 40.644 27.457C40.6497 28.4143 39.9693 28.9654 39.9693 28.9654C39.9693 28.9654 39.2822 28.4224 39.2765 27.4652C39.2708 26.5079 39.9513 25.9569 39.9513 25.9569Z" fill="#005B13"/>
<path d="M36.8162 24.3417C36.8162 24.3417 37.6912 24.3767 38.2587 25.1476C38.8263 25.9185 38.6 26.7644 38.6 26.7644C38.6 26.7644 37.7251 26.7293 37.1575 25.9584C36.59 25.1876 36.8162 24.3417 36.8162 24.3417Z" fill="#005B13"/>
<path d="M27.6353 24.2832C27.6353 24.2832 26.7619 24.2213 26.1125 24.9246C25.4631 25.6279 25.5944 26.4937 25.5944 26.4937C25.5944 26.4937 26.4679 26.5556 27.1172 25.8523C27.7666 25.149 27.6353 24.2832 27.6353 24.2832Z" fill="#005B13"/>
<path d="M37.4721 27.4078C37.4721 27.4078 38.2858 27.0843 39.1177 27.558C39.9495 28.0316 40.0865 28.8965 40.0865 28.8965C40.0865 28.8965 39.2728 29.22 38.441 28.7463C37.6091 28.2726 37.4721 27.4078 37.4721 27.4078Z" fill="#005B13"/>
<path d="M24.0272 25.9564C24.0272 25.9564 23.3402 26.4993 23.3345 27.4565C23.3288 28.4138 24.0093 28.9649 24.0093 28.9649C24.0093 28.9649 24.6963 28.4219 24.702 27.4647C24.7077 26.5074 24.0272 25.9564 24.0272 25.9564Z" fill="#005B13"/>
<path d="M26.5054 27.4073C26.5054 27.4073 25.6917 27.0838 24.8599 27.5575C24.028 28.0311 23.891 28.896 23.891 28.896C23.891 28.896 24.7047 29.2195 25.5366 28.7458C26.3684 28.2721 26.5054 27.4073 26.5054 27.4073Z" fill="#005B13"/>
<path d="M35.465 36.6491C35.465 36.6491 35.7949 37.4602 35.3278 38.2958C34.8607 39.1313 33.9969 39.2751 33.9969 39.2751C33.9969 39.2751 33.667 38.464 34.1341 37.6284C34.6012 36.7929 35.465 36.6491 35.465 36.6491Z" fill="#005B13"/>
<path d="M28.5135 36.6491C28.5135 36.6491 28.1836 37.4602 28.6507 38.2958C29.1179 39.1313 29.9816 39.2751 29.9816 39.2751C29.9816 39.2751 30.3115 38.464 29.8444 37.6284C29.3773 36.7929 28.5135 36.6491 28.5135 36.6491Z" fill="#005B13"/>
<path d="M28.7988 31.7866L34.7722 37.4496" stroke="#999999" stroke-width="0.853333"/>
<path d="M35.1992 31.7866L29.2259 37.4496" stroke="#999999" stroke-width="0.853333"/>
<path d="M30.7197 30.4095L31.1464 29.7695L34.5597 32.8532L36.4797 33.8229L36.9064 35.1029L36.2664 35.7429L30.7197 30.4095Z" fill="#999999"/>
<path d="M33.2588 30.4095L32.8321 29.7695L29.4398 32.8532L27.4988 33.8229L27.0721 35.1029L27.7121 35.7429L33.2588 30.4095Z" fill="#999999"/>
<circle cx="35.6263" cy="34.89" r="0.64" fill="#999999"/>
<circle r="0.64" transform="matrix(-1 0 0 1 28.3737 34.89)" fill="#999999"/>
<path d="M37.7325 25.7168C38.8662 26.8505 39.6383 28.295 39.9511 29.8675C40.2639 31.4401 40.1034 33.0701 39.4898 34.5514C38.8762 36.0327 37.8372 37.2988 36.504 38.1895C35.4087 38.9214 34.1552 39.3729 32.8536 39.5107L31.1469 40.8635M26.2679 25.7168C25.1342 26.8505 24.3621 28.295 24.0493 29.8675C23.7365 31.4401 23.8971 33.0701 24.5106 34.5514C25.1242 36.0327 26.1633 37.2988 27.4964 38.1895C28.5918 38.9214 29.8452 39.3729 31.1469 39.5107L32.8536 40.8635" stroke="#005B13" stroke-width="0.853333"/>
<path d="M28.5868 32.4266H29.8668L28.1602 28.5866L28.8002 27.3066H33.7068L33.0668 28.5866L34.9868 32.4266L34.1116 33.7066H29.2268L28.5868 32.4266Z" fill="#FFD400"/>
<path d="M32.4261 29.1299H29.4395L29.8661 29.9832H32.8528L32.4261 29.1299Z" fill="#CC9500"/>
<path d="M33.0667 30.8364H30.0801L30.5067 31.6898H33.4934L33.0667 30.8364Z" fill="#CC9500"/>
<path d="M29.8672 26.4534V25.6001H31.1472L32.4272 27.3068H30.5072L29.8672 26.4534Z" fill="#960A3C"/>
<path d="M30.0803 25.387H29.0137L30.0803 24.3203V25.387Z" fill="#FFD400"/>
<circle cx="30.2928" cy="24.7469" r="0.853333" fill="#005B13"/>
<path d="M36.2668 35.7435L36.9068 35.1035L37.9735 35.5302L39.2535 37.0235L37.9735 38.3035L36.6935 36.8102L36.2668 35.7435Z" fill="#960A3C"/>
<path d="M27.7117 35.7435L27.0717 35.1035L26.005 35.5302L24.725 37.0235L26.005 38.3035L27.285 36.8102L27.7117 35.7435Z" fill="#960A3C"/>
<path d="M39.7273 37.5928C39.7273 37.5928 39.2714 38.3404 38.3219 38.4617C37.3723 38.5831 36.743 37.9742 36.743 37.9742C36.743 37.9742 37.1989 37.2266 38.1485 37.1052C39.098 36.9839 39.7273 37.5928 39.7273 37.5928Z" fill="#005B13"/>
<path d="M24.2522 37.5928C24.2522 37.5928 24.7081 38.3404 25.6576 38.4617C26.6072 38.5831 27.2365 37.9742 27.2365 37.9742C27.2365 37.9742 26.7805 37.2266 25.831 37.1052C24.8815 36.9839 24.2522 37.5928 24.2522 37.5928Z" fill="#005B13"/>
<path d="M34.7734 37.4497L36.2668 38.943" stroke="#FFD400" stroke-width="0.853333"/>
<path d="M29.2051 37.4497L27.7327 38.8267" stroke="#FFD400" stroke-width="0.853333"/>
<path d="M36.8923 39.1163C36.8923 39.1163 36.3548 39.8076 35.3976 39.8208C34.4404 39.8341 33.884 39.1579 33.884 39.1579C33.884 39.1579 34.4215 38.4667 35.3787 38.4534C36.3359 38.4402 36.8923 39.1163 36.8923 39.1163Z" fill="#005B13"/>
<path d="M27.0872 39.1163C27.0872 39.1163 27.6247 39.8076 28.5819 39.8208C29.5391 39.8341 30.0955 39.1579 30.0955 39.1579C30.0955 39.1579 29.558 38.4667 28.6008 38.4534C27.6436 38.4402 27.0872 39.1163 27.0872 39.1163Z" fill="#005B13"/>
<path d="M31.7871 26.2402C36.4804 27.3069 37.3338 31.1469 35.2004 34.3469" stroke="#005B13" stroke-width="0.853333"/>
<path d="M29.8672 25.1738V25.8138L32.2139 27.3072L33.7072 27.3072V26.4538L30.7205 25.1738H29.8672Z" fill="#005B13"/>
</g>
<defs>
<clipPath id="clip0_626_11143">
<rect width="64" height="64" fill="white" transform="translate(0 64) rotate(-90)"/>
</clipPath>
</defs>
</svg>
